<?xml version="1.0" encoding="utf-8"?>
<!-- Generator: Adobe Illustrator 23.0.0, SVG Export Plug-In . SVG Version: 6.00 Build 0)  -->
<svg version="1.1" id="Layer_1" xmlns="http://www.w3.org/2000/svg" xmlns:xlink="http://www.w3.org/1999/xlink" x="0px" y="0px"
	 viewBox="0 0 1133.9 600" style="enable-background:new 0 0 1133.9 600;" xml:space="preserve">
<g>
	<path d="M110.3,325.7c-11.7,0-19.8-3.9-28.6-11.4l2.3-5.6c7.9,7.6,15.7,12,26.8,12c14.9,0,25.8-8.8,25.8-24.2
		c0-17.2-14.1-22-27.3-28.3c-12.5-5.9-20.6-10.9-20.6-25.9c0-15.7,13-26.2,28.1-26.2c8.5,0,16.2,3.4,22.8,8.7l-2.9,5.1
		c-5.9-5.5-13-8.8-21.2-8.8c-12.5,0-21.2,9-21.2,21.3c0,11.9,7.7,16.1,17.5,20.7l9.2,4.3c13.5,6.4,21.2,12.8,21.2,28.6
		C142.3,314.9,128.3,325.7,110.3,325.7"/>
	<path d="M257.9,316c-8.1,6.9-18.5,9.8-28.9,9.8c-14,0-28.7-5.1-36.1-17.8c-4.5-7.5-4.2-18.6-4.2-27.1v-62.6h5.5v62.9
		c0,11.7,0,23,9.8,31c7.2,5.9,16.7,8.5,25.9,8.5c10.3,0,21-3.2,27.6-11.6c5.8-7.2,6.1-19.3,6.1-28.1v-62.8h5.5V281
		C269,294.4,268.5,306.7,257.9,316"/>
	<polygon points="403.3,323.6 322.8,323.6 321.7,321.6 391.9,223.1 327,223.1 327,218.2 398.9,218.2 400,220.3 330,318.6
		404.2,318.6 	"/>
	<path d="M526,323.6l-16.2-40.5h-46.3l-16.1,40.5h-5.6L485.3,215h2.6l44,108.6H526z M486.5,224.2c-1.8,4.8-3.4,9.6-5.3,14.4
		l-15.7,40h42.6C500.6,260.5,493.2,242.5,486.5,224.2"/>
	<path d="M658.8,324.7l-62.9-78.4c-5.1-6.3-10.1-12.7-14.9-19.1c0.2,8.4,0.3,16.5,0.3,24.9v71.5h-5V217.9l2.7-0.8l62.8,78
		c5,6.3,10,12.7,14.8,19.1c-0.2-8.3-0.3-16.5-0.3-24.9v-71.1h5v105.3L658.8,324.7z"/>
	<path d="M794.2,324.7l-63-78.4c-5.1-6.3-10.1-12.7-14.9-19.1c0.2,8.4,0.3,16.5,0.3,24.9v71.5h-5V217.9l2.7-0.8l62.8,78
		c5,6.3,10,12.7,14.8,19.1c-0.2-8.3-0.3-16.5-0.3-24.9v-71.1h5v105.3L794.2,324.7z"/>
	<path d="M923.3,323.6l-16.2-40.5h-46.2l-16,40.5h-5.6L882.8,215h2.6l44,108.6H923.3z M883.8,224.2c-1.8,4.8-3.4,9.6-5.3,14.4
		l-15.7,40h42.6C897.9,260.5,890.6,242.5,883.8,224.2"/>
	<polygon points="1048.6,323.6 1048.6,270.4 980.7,270.4 980.7,323.6 975.2,323.6 975.2,218.2 980.7,218.2 980.7,265.6
		1048.6,265.6 1048.6,218.2 1054.1,218.2 1054.1,323.6 	"/>
</g>
<g>
	<path d="M439.2,415.3h18.9v3.4h-22.9v-39.4h4V415.3z"/>
	<path d="M505.7,399.3c0,12-7.4,20.3-18.2,20.3c-10.9,0-18.2-8.3-18.2-20.6c0-12.3,7.3-20.5,18.2-20.5
		C498.5,378.4,505.7,386.6,505.7,399.3z M476.7,386.9c-2.3,2.9-3.5,7.1-3.5,12c0,10.4,5.7,17.2,14.3,17.2c8.6,0,14.3-6.8,14.3-17
		c0-5.1-1.2-9.3-3.5-12.3c-2.5-3.2-6.5-5.1-10.8-5.1C483.2,381.8,479.3,383.7,476.7,386.9z"/>
	<path d="M548.5,418.7l-22.9-34.6c0.2,2.2,0.2,4.1,0.2,6.2l0.1,4.8v4.8v18.8h-3.5v-39.4h4.1l22.9,34.5c-0.2-3.2-0.3-11.2-0.3-16.2
		v-18.3h3.5v39.4H548.5z"/>
	<path d="M570.8,379.3h14.4c6.5,0,10.8,1.9,13.5,6.1c2.3,3.5,3.5,8.1,3.5,13.5c0,5.8-1.4,10.6-4.1,14.2c-3,4-6.9,5.6-13.7,5.6h-13.6
		V379.3z M583.5,415.3c6.1,0,9.1-1.2,11.6-4.5c2.1-3,3.2-6.8,3.2-11.9c0-5.5-1.2-10-3.4-12.6c-2.2-2.6-5.2-3.7-9.9-3.7h-10.2v32.6
		H583.5z"/>
	<path d="M653.6,399.3c0,12-7.4,20.3-18.2,20.3c-10.9,0-18.2-8.3-18.2-20.6c0-12.3,7.3-20.5,18.2-20.5
		C646.4,378.4,653.6,386.6,653.6,399.3z M624.7,386.9c-2.3,2.9-3.5,7.1-3.5,12c0,10.4,5.7,17.2,14.3,17.2c8.6,0,14.3-6.8,14.3-17
		c0-5.1-1.2-9.3-3.5-12.3c-2.5-3.2-6.5-5.1-10.8-5.1C631.1,381.8,627.2,383.7,624.7,386.9z"/>
	<path d="M696.4,418.7l-22.9-34.6c0.2,2.2,0.2,4.1,0.2,6.2l0.1,4.8v4.8v18.8h-3.5v-39.4h4.1l22.9,34.5c-0.2-3.2-0.3-11.2-0.3-16.2
		v-18.3h3.5v39.4H696.4z"/>
</g>
</svg>
