<?xml version="1.0" encoding="iso-8859-1"?>
<!-- Generator: Adobe Illustrator 19.0.0, SVG Export Plug-In . SVG Version: 6.00 Build 0)  -->
<svg version="1.1" id="Capa_1" xmlns="http://www.w3.org/2000/svg" xmlns:xlink="http://www.w3.org/1999/xlink" x="0px" y="0px"
	 viewBox="0 0 475.166 475.166" style="enable-background:new 0 0 475.166 475.166;" xml:space="preserve">
<g>
	<g>
		<path d="M436.917,231.966c-1.273-2.917-4.154-4.802-7.336-4.8h-384c-4.418,0.002-7.999,3.585-7.997,8.003
			c0.001,2.024,0.769,3.973,2.149,5.453l109.848,117.696v92.848c0,13.255,10.745,24,24,24h128c13.255,0,24-10.745,24-24v-92.848
			l109.848-117.696C437.606,238.292,438.191,234.89,436.917,231.966z M309.581,451.166c0,4.418-3.582,8-8,8h-128
			c-4.418,0-8-3.582-8-8v-88h144V451.166z M314.101,347.166h-153.04l-97.08-104h347.2L314.101,347.166z"/>
	</g>
</g>
<g>
	<g>
		<path d="M83.181,65.51l11.312,11.312c38.934-39.115,91.899-61.028,147.088-60.856c55.178-0.185,108.138,21.708,147.08,60.8
			l11.32-11.256C312.443-21.837,170.718-21.837,83.181,65.51z"/>
	</g>
</g>
<g>
	<g>
		<path d="M128.445,110.766l11.312,11.312c56.274-56.144,147.374-56.144,203.648,0l11.312-11.312
			C292.193,48.381,190.969,48.381,128.445,110.766z"/>
	</g>
</g>
<g>
	<g>
		<path d="M173.701,156.014l11.312,11.32c31.262-31.193,81.874-31.193,113.136,0l11.312-11.32
			C271.945,118.589,211.216,118.589,173.701,156.014z"/>
	</g>
</g>
<g>
</g>
<g>
</g>
<g>
</g>
<g>
</g>
<g>
</g>
<g>
</g>
<g>
</g>
<g>
</g>
<g>
</g>
<g>
</g>
<g>
</g>
<g>
</g>
<g>
</g>
<g>
</g>
<g>
</g>
</svg>
